Coordinates
version=1
nRows=9
nColumns=40
inDegrees=yes

Units are S.I. units (second, meters, Newtons, ...)
If the header above contains a line with 'inDegrees', this indicates whether rotational values are in degrees (yes) or radians (no).

endheader
time	pelvis_tilt	pelvis_list	pelvis_rotation	pelvis_tx	pelvis_ty	pelvis_tz	hip_flexion_r	hip_adduction_r	hip_rotation_r	knee_angle_r	knee_angle_r_beta	ankle_angle_r	subtalar_angle_r	mtp_angle_r	hip_flexion_l	hip_adduction_l	hip_rotation_l	knee_angle_l	knee_angle_l_beta	ankle_angle_l	subtalar_angle_l	mtp_angle_l	lumbar_extension	lumbar_bending	lumbar_rotation	arm_flex_r	arm_add_r	arm_rot_r	elbow_flex_r	pro_sup_r	wrist_flex_r	wrist_dev_r	arm_flex_l	arm_add_l	arm_rot_l	elbow_flex_l	pro_sup_l	wrist_flex_l	wrist_dev_l
     10.34999999999999964473	    -16.90377456827436475351	     -3.92932177365683754644	    179.54430951365640112272	      0.24026892038827488141	      0.66287661866923519582	     -0.96457156422176826283	     49.29735194246973861709	    -46.11764023670399836874	      4.32433893695123394707	     81.92347303105260891698	      1.42983433906064694163	     15.78002839053578654216	      0.00000000000000000000	      0.00000000000000000000	     35.16058667743437382569	    -49.75995157358970999439	    -12.28478563203608509014	     70.39989717457214624119	      1.22870999876173714327	      6.92649619561649920740	      0.00000000000000000000	      0.00000000000000000000	    -73.90862623283226184867	     -4.90920339338719280420	     -5.45098727539620231397	     44.67271108044065641707	      5.10761984282980563421	     27.61403418108453067248	      3.23586421101119858790	     10.10432949559739412848	      0.00000000000000000000	      0.00000000000000000000	     53.20580062394256515290	    -12.09789901958018454309	     80.73406287408209891510	      6.96015119250552682928	     82.99473068137992015636	      0.00000000000000000000	      0.00000000000000000000
     10.35500000000000042633	    -16.85714067862969045564	     -3.92232536799505204783	    179.53421952825044627389	      0.23997088796742330197	      0.66395152984523264639	     -0.96477472637788530552	     49.12091693614240739407	    -46.06679895052344164696	      4.15725398560789116686	     81.75719570669534164153	      1.42693225227920583720	     15.75004572812165726248	      0.00000000000000000000	      0.00000000000000000000	     34.98608788238072975219	    -49.75977853810003637136	    -12.50488676446076929949	     70.19893661483799007783	      1.22520257532772536280	      6.74155249653448862546	      0.00000000000000000000	      0.00000000000000000000	    -73.95295018095137606906	     -4.91452723999492757656	     -5.42159757204751446835	     44.73818876175169378939	      5.09639844989022616772	     27.51757777225851953062	      3.21012710191259431625	     10.21339988658427344603	      0.00000000000000000000	      0.00000000000000000000	     53.25723799068266117729	    -12.06894955273074643287	     80.65687994613263356314	      6.94047930928970568942	     82.75829013531759414946	      0.00000000000000000000	      0.00000000000000000000
     10.35999999999999943157	    -16.70579841413539767814	     -3.93973077236150492908	    179.52199376615470782781	      0.23961711884650307991	      0.66471697617973413141	     -0.96505838193580728568	     49.14469597622113639090	    -46.04095469028412423995	      4.07595576844307938558	     81.64150377990817730733	      1.42491304723879363969	     15.75436027814527051305	      0.00000000000000000000	      0.00000000000000000000	     34.95470024462287739198	    -49.75794031137969852807	    -12.70916288449239672786	     70.08356476120505362815	      1.22318895661770166150	      6.75163819704621115392	      0.00000000000000000000	      0.00000000000000000000	    -73.88246003355992286288	     -4.97004653164245357999	     -5.40503463466096611967	     44.73917214870066771937	      5.10379964305402200608	     27.50953944701786113569	      3.21427826947528272328	     10.21398316371924508417	      0.00000000000000000000	      0.00000000000000000000	     53.30366291218171426181	    -12.07067131495956324727	     80.64814522492865478398	      6.93142975070397948656	     82.77795933354127555504	      0.00000000000000000000	      0.00000000000000000000
     10.36500000000000021316	    -16.55641359952489466423	     -3.94097127158276627767	    179.51837992201387805835	      0.23919147112731359295	      0.66550848947436247460	     -0.96527167589461293495	     49.13413094257359148287	    -46.02419098908173822338	      3.94129585227892276222	     81.51764034350357235326	      1.42275122245069862714	     15.71843270122841396130	      0.00000000000000000000	      0.00000000000000000000	     34.90114886547375760983	    -49.75633763226967687388	    -12.91745094099623791806	     69.92688744164796332825	      1.22045442152823113702	      6.74113219880930980565	      0.00000000000000000000	      0.00000000000000000000	    -73.79599375502642999436	     -4.99293527473651099768	     -5.38759528773814455604	     44.72645114763724905060	      5.09631620102392624005	     27.49570866756696574384	      3.21776581983142051513	     10.21452662064238481321	      0.00000000000000000000	      0.00000000000000000000	     53.29994030600335008785	    -12.07229207291491945853	     80.63890327255332124423	      6.92146455953352734980	     82.79973337874787375767	      0.00000000000000000000	      0.00000000000000000000
     10.36999999999999921840	    -16.41330053799080346266	     -3.93620446442450333535	    179.50483226087430921325	      0.23885167384916150546	      0.66637100992170228420	     -0.96543333125721686461	     49.09245952518794098296	    -45.97087307597907113177	      3.80921810365364921225	     81.35465434338354384636	      1.41990658011394832450	     15.70612599214379301316	      0.00000000000000000000	      0.00000000000000000000	     34.84505697285017333797	    -49.75302606325861631831	    -13.10935373430850958698	     69.77076195965916838304	      1.21772951782126370723	      6.71586674553910434327	      0.00000000000000000000	      0.00000000000000000000	    -73.71888842832872512645	     -5.01441960180300583261	     -5.36658537033420834916	     44.72112725227504625991	      5.08448881014158970970	     27.48248217551701344519	      3.22519905346620427977	     10.21598787832008881082	      0.00000000000000000000	      0.00000000000000000000	     53.31071347132745330555	    -12.06356764745249599002	     80.62303871879772998454	      6.91342319630004098485	     82.81847797123246834872	      0.00000000000000000000	      0.00000000000000000000
     10.37500000000000000000	    -16.33426325331613071512	     -3.78544010616117176937	    179.52589109451082549640	      0.23852937690117642644	      0.66739280998147210155	     -0.96545891389961890905	     48.78758685943758166559	    -45.85232449260046649897	      3.42347139328226823807	     81.15914675761531782427	      1.41649432902966765369	     15.67550156924620630150	      0.00000000000000000000	      0.00000000000000000000	     34.74495992613938710747	    -49.75045943348702337516	    -13.01281207417082974587	     69.38936928778903734383	      1.21107295995415142897	      6.52588057801331267171	      0.00000000000000000000	      0.00000000000000000000	    -73.69345937137535429429	     -4.92445141239418227030	     -5.23864197136714881964	     44.72696030041973358493	      5.06356958422749237059	     27.40638667292428110045	      3.28422657094407943745	     10.23170111475205246165	      0.00000000000000000000	      0.00000000000000000000	     53.27728293325488095888	    -12.02768873188768949944	     80.51523746109043599972	      6.85778634945750731333	     82.91191791601305283166	      0.00000000000000000000	      0.00000000000000000000
     10.38000000000000078160	    -16.22769917985434062757	     -3.80911185708161070806	    179.50815667651491480683	      0.23819466579189366162	      0.66822794109168082155	     -0.96568393567313448589	     48.77137575797457458293	    -45.84185573776120747880	      3.33617629033653972925	     81.04438854699638739021	      1.41449142041067021935	     15.65401108600297241935	      0.00000000000000000000	      0.00000000000000000000	     34.69453999501457275301	    -49.75024949760767611906	    -13.21717555852888992263	     69.32539494349040865018	      1.20995639700933588223	      6.51312381749925606300	      0.00000000000000000000	      0.00000000000000000000	    -73.64712312163493379558	     -4.98677921829127512865	     -5.21056063217224885165	     44.75167851942742913707	      5.03875930465813759440	     27.39925577764412523152	      3.28255344682954497415	     10.23302258305076506417	      0.00000000000000000000	      0.00000000000000000000	     53.34937281845505196998	    -12.01025881618997281919	     80.49181356277981080893	      6.85827414243639754687	     82.92267335415679951893	      0.00000000000000000000	      0.00000000000000000000
     10.38499999999999978684	    -16.10075996213366522625	     -3.81299303389009214271	    179.49368030931924522520	      0.23785235510211266696	      0.66916064344144476905	     -0.96578600170031592143	     48.71012115809565301561	    -45.80872772144109461578	      3.19805005081131632494	     80.86311337568128010389	      1.41132757181910473143	     15.61806728645743724826	      0.00000000000000000000	      0.00000000000000000000	     34.63481495787151231980	    -49.74670027711174924434	    -13.42849658977327109710	     69.21119376695419589396	      1.20796321046912780162	      6.47942673284826664570	      0.00000000000000000000	      0.00000000000000000000	    -73.57354624646545460109	     -5.00513483924614188680	     -5.19198621820613670508	     44.75043026380306088186	      5.00929583128177924323	     27.38803712727008132788	      3.27598554254127938279	     10.23351462682774659640	      0.00000000000000000000	      0.00000000000000000000	     53.33736675657333847766	    -11.99351197420143400052	     80.47280036027152050337	      6.85622674822469502232	     82.93691557175567652394	      0.00000000000000000000	      0.00000000000000000000
     10.39000000000000056843	    -16.10311204918159333488	     -3.63867931778815068000	    179.52772595116155684991	      0.23760249468709329634	      0.67034218050397242905	     -0.96568409593925175205	     48.27008256642198347208	    -45.70995731182593146968	      2.73468077937546460987	     80.63904809337940093883	      1.40741689490352639424	     15.55978594088674960005	      0.00000000000000000000	      0.00000000000000000000	     34.53130616928825702416	    -49.74581930469862811606	    -13.25298724249344495263	     68.89830098107702838206	      1.20250220114983363828	      6.18854831287447737509	      0.00000000000000000000	      0.00000000000000000000	    -73.61463315581409005972	     -4.87799828488565268003	     -5.04512407618891778327	     44.80784294386644006636	      4.96163612237850948361	     27.32605531557518574459	      3.29524082102862658772	     10.25279587396279445954	      0.00000000000000000000	      0.00000000000000000000	     53.32510358563623498185	    -11.92319323394446861641	     80.29831413446721910532	      6.78056774604212897373	     83.02121842685514252480	      0.00000000000000000000	      0.00000000000000000000
